<?xml version="1.0" encoding="utf-8"?>
<!-- Generator: Adobe Illustrator 21.0.0, SVG Export Plug-In . SVG Version: 6.00 Build 0)  -->
<svg version="1.1" id="Layer_1" xmlns="http://www.w3.org/2000/svg" xmlns:xlink="http://www.w3.org/1999/xlink" x="0px" y="0px"
	 viewBox="0 0 153.5 57.3" style="enable-background:new 0 0 153.5 57.3;" xml:space="preserve">
<style type="text/css">
	.st0{fill:#FFFFFF;}
	.st1{opacity:0.46;fill:#E6E4E4;}
	.st2{fill:none;stroke:#B4B4B4;stroke-width:0.75;stroke-miterlimit:10;}
	.st3{fill:#B4B4B4;}
	.st4{fill:#313131;}
	.st5{fill:#999999;}
	.st6{fill:none;stroke:#CCCCCC;stroke-width:1.0334;stroke-linecap:square;stroke-miterlimit:10;}
	.st7{fill:#C9C9C9;}
	.st8{fill:none;stroke:#CCCCCC;stroke-width:0.9451;stroke-linecap:square;stroke-miterlimit:10;}
	.st9{fill:none;stroke:#C9C9C9;stroke-width:0.5;stroke-miterlimit:10;}
	.st10{fill:none;stroke:#CCCCCC;stroke-miterlimit:10;}
	.st11{fill:#666666;}
	.st12{fill:#F2F2F2;}
	.st13{fill:none;stroke:#C9C9C9;stroke-width:9.955423e-02;stroke-miterlimit:10;}
	.st14{fill:none;stroke:#CCCCCC;stroke-width:0.179;stroke-linecap:square;stroke-miterlimit:10;}
	.st15{fill:none;stroke:#CCCCCC;stroke-width:0.1991;stroke-miterlimit:10;}
	.st16{opacity:0.71;}
	.st17{fill:none;stroke:#CCCCCC;stroke-width:0.968;stroke-linecap:square;stroke-miterlimit:10;}
	.st18{fill:none;stroke:#000000;stroke-miterlimit:10;}
	.st19{opacity:0.38;fill:none;stroke:#999999;stroke-miterlimit:10;}
	.st20{fill:#FF0000;}
	.st21{fill:none;stroke:#999999;stroke-width:2;stroke-miterlimit:10;}
	.st22{fill:#676767;}
	.st23{fill:none;stroke:#7C828B;stroke-width:0.75;stroke-miterlimit:10;}
	.st24{fill:none;stroke:#B4B4B4;stroke-width:0.6296;stroke-miterlimit:10;}
	.st25{fill:none;stroke:#B4B4B4;stroke-width:0.5;stroke-miterlimit:10;}
	.st26{fill:#7C828B;}
	.st27{opacity:0.14;fill:#B4B4B4;}
	.st28{fill:none;stroke:#B4B4B4;stroke-width:0.2;stroke-miterlimit:10;}
	.st29{opacity:0.46;}
	.st30{fill:#E6E4E4;}
	.st31{fill:none;stroke:#B4B4B4;stroke-width:0.5775;stroke-miterlimit:10;}
	.st32{fill:none;stroke:#B4B4B4;stroke-width:0.4586;stroke-miterlimit:10;}
	.st33{fill:none;stroke:#B4B4B4;stroke-width:0.214;stroke-miterlimit:10;}
	.st34{fill:none;stroke:#000000;stroke-width:2;stroke-miterlimit:10;}
	.st35{opacity:0.38;}
	.st36{fill:none;stroke:#999999;stroke-width:0.5;stroke-linecap:round;stroke-linejoin:round;}
	.st37{fill:none;stroke:#999999;stroke-width:0.5;stroke-linecap:round;stroke-linejoin:round;stroke-dasharray:1.0003,1.0003;}
	.st38{fill:none;stroke:#FFFFFF;stroke-miterlimit:10;}
	.st39{opacity:0.15;fill:#FFFFFF;}
	.st40{fill:none;stroke:#B4B4B4;stroke-width:0.2877;stroke-miterlimit:10;}
	.st41{fill:none;stroke:#FFFFFF;stroke-width:0.75;stroke-miterlimit:10;}
	.st42{fill:none;stroke:#B4B4B4;stroke-width:0.7721;stroke-miterlimit:10;}
	.st43{fill:#B4B4B4;stroke:#B4B4B4;stroke-width:0.2;stroke-miterlimit:10;}
	.st44{fill:none;stroke:#B4B4B4;stroke-width:0.6599;stroke-miterlimit:10;}
	.st45{fill:none;stroke:#FFFFFF;stroke-width:0.6599;stroke-miterlimit:10;}
	.st46{opacity:0.48;fill:#FFFFFF;}
</style>
<g>
	<g>
		<g>
			<path class="st3" d="M28.6,56.7c-15.5,0-28-12.6-28-28c0-15.5,12.6-28,28-28s28,12.6,28,28C56.7,44.1,44.1,56.7,28.6,56.7z
				 M28.6,3C14.5,3,3,14.5,3,28.7s11.5,25.7,25.7,25.7s25.7-11.5,25.7-25.7S42.8,3,28.6,3z"/>
		</g>
		<g>
			<g>
				<path class="st3" d="M28.6,41.9l-5.8-0.1c-1.3,0-3,0-4.8,0.1l-0.4-2c1.2,0,2-0.1,2.4-0.4c0.4-0.2,0.6-0.5,0.6-1l0.1-19.9
					c0-0.4-0.2-0.8-0.5-1c-0.3-0.2-1-0.3-2-0.3l-0.5-2c3,0.1,5,0.1,6.1,0.1c1.1,0,2.6,0,4.5-0.1l0.4,2c-1.2,0-2,0.1-2.4,0.4
					c-0.4,0.2-0.6,0.5-0.6,1v18.9c0,1.3,0.6,2,1.8,2H31c3.3,0,5.6-1.8,6.8-5.4l2,0.4c0,0.4-0.4,1.7-1.1,3.9
					c-0.7,2.2-1.3,3.3-1.6,3.3L28.6,41.9z"/>
			</g>
		</g>
	</g>
	<g>
		<path class="st3" d="M72.8,18.9h4.4v15.8h7.7v3.7H72.8V18.9z"/>
		<path class="st3" d="M89.7,28.6c0-6.4,3.6-10.1,8.9-10.1c5.3,0,8.9,3.7,8.9,10.1c0,6.4-3.6,10.2-8.9,10.2
			C93.3,38.8,89.7,35,89.7,28.6z M103,28.6c0-3.9-1.7-6.2-4.4-6.2c-2.7,0-4.4,2.3-4.4,6.2c0,3.9,1.7,6.4,4.4,6.4
			C101.3,35,103,32.5,103,28.6z"/>
		<path class="st3" d="M113.1,28.8c0-6.5,4.3-10.3,9.5-10.3c2.8,0,4.9,1.2,6.2,2.6l-2.3,2.8c-1-0.9-2-1.6-3.7-1.6
			c-3,0-5.2,2.4-5.2,6.3c0,4,1.8,6.4,5.5,6.4c0.8,0,1.6-0.2,2.1-0.6V31H122v-3.6h7.1v9c-1.4,1.3-3.7,2.4-6.5,2.4
			C117.3,38.8,113.1,35.3,113.1,28.8z"/>
		<path class="st3" d="M135.1,28.6c0-6.4,3.6-10.1,8.9-10.1s8.9,3.7,8.9,10.1c0,6.4-3.6,10.2-8.9,10.2S135.1,35,135.1,28.6z
			 M148.4,28.6c0-3.9-1.7-6.2-4.4-6.2c-2.7,0-4.4,2.3-4.4,6.2c0,3.9,1.7,6.4,4.4,6.4C146.7,35,148.4,32.5,148.4,28.6z"/>
	</g>
</g>
</svg>
